<?xml version="1.0" encoding="UTF-8"?>
<svg xmlns="http://www.w3.org/2000/svg" xmlns:xlink="http://www.w3.org/1999/xlink" width="48pt" height="48pt" viewBox="0 0 48 48" version="1.1">
<g id="surface964214">
<path style=" stroke:none;fill-rule:nonzero;fill:rgb(100%,100%,100%);fill-opacity:1;" d="M 10 6 C 7.789062 6 6 7.789062 6 10 L 6 38 C 6 40.1875 7.8125 42 10 42 L 38 42 C 40.1875 42 42 40.1875 42 38 L 42 10 C 42 7.789062 40.210938 6 38 6 Z M 10 14 L 38 14 L 38 38 L 10 38 Z M 22 18 L 22 24 L 16 24 L 16 28 L 22 28 L 22 34 L 26 34 L 26 28 L 32 28 L 32 24 L 26 24 L 26 18 Z M 22 18 "/>
</g>
</svg>
